Puss in Boots: The Three Diablos (2011) 1080p AC3+DTS MultiSubs
.
Subs: Dutch, English, French, Spanish
NL Vertaling: SRT-Team
.
[IMG]http://img109.imageshack.us/img109/9811/pib2011.jpg[/IMG]
.
Verenigde Staten
Avontuur / Animatie
13 minuten

Antonio Banderas (Actor), Salma Hayek (Actor), Chris Miller (Director)

In The Three Diablos bevindt de avontuurlijke Puss zich op een kruispunt: Wordt hij een held of een bandiet? Wanneer hij ingaat op de vraag van een wanhopige prinses om haar gestolen robijn terug te halen, moet hij samenwerken met drie kleine kittens. Schattig, donzig en. dodelijk. De Three Diablos verhinderen Puss om het juweel te stelen van De Fluisteraar, een beruchte dief uit Frankrijk. Zal Puss de drie duivels op tijd kunnen temmen en de robijn terugbrengen?
.
INFO
. 
http://animatie.blog.nl/dreamworks/2011/12/31/puss-in-boots-the-three-diablos
.
Format                           : Matroska
Format version                   : Version 2
File size                        : 1.31 GiB
Duration                         : 13mn 5s
Overall bit rate                 : 14.3 Mbps
Encoded date                     : UTC 2012-02-19 23:04:06
Writing application              : mkvmerge v5.2.0 ('I can't explain') built on Dec 18 2011 18:12:03
Writing library                  : libebml v1.2.3 + libmatroska v1.3.0

Video
ID                               : 1
Format                           : AVC
Format/Info                      : Advanced Video Codec
Format profile                   : High@L4.1
Format settings, CABAC           : Yes
Format settings, ReFrames        : 4 frames
Codec ID                         : V_MPEG4/ISO/AVC
Duration                         : 13mn 5s
Bit rate                         : 11.9 Mbps
Width                            : 1 920 pixels
Height                           : 1 080 pixels
Display aspect ratio             : 16:9
Frame rate                       : 23.976 fps
Color space                      : YUV
Chroma subsampling               : 4:2:0
Bit depth                        : 8 bits
Scan type                        : Progressive
Bits/(Pixel*Frame)               : 0.239
Stream size                      : 1.08 GiB (83%)
Writing library                  : x264 core 120 r2146 bcd41db
Encoding settings                : cabac=1 / ref=4 / deblock=1:-3:-3 / analyse=0x3:0x113 / me=tesa / subme=10 / psy=1 / psy_rd=0.80:0.00 / mixed_ref=1 / me_range=16 / chroma_me=1 / trellis=2 / 8x8dct=1 / cqm=0 / deadzone=21,11 / fast_pskip=0 / chroma_qp_offset=-2 / threads=12 / sliced_threads=0 / nr=0 / decimate=0 / interlaced=0 / bluray_compat=0 / constrained_intra=0 / bframes=6 / b_pyramid=2 / b_adapt=2 / b_bias=0 / direct=3 / weightb=1 / open_gop=0 / weightp=2 / keyint=250 / keyint_min=23 / scenecut=40 / intra_refresh=0 / rc=crf / mbtree=0 / crf=17.2 / qcomp=0.50 / qpmin=0 / qpmax=69 / qpstep=4 / ip_ratio=1.40 / pb_ratio=1.30 / aq=1:0.90
Language                         : English
Default                          : Yes
Forced                           : No
Matrix coefficients              : BT.709-5, BT.1361, IEC 61966-2-4 709, SMPTE RP177

Audio #1
ID                               : 2
Format                           : DTS
Format/Info                      : Digital Theater Systems
Codec ID                         : A_DTS
Duration                         : 13mn 5s
Bit rate mode                    : Constant
Bit rate                         : 1 510 Kbps
Channel(s)                       : 6 channels
Channel positions                : Front: L C R, Side: L R, LFE
Sampling rate                    : 48.0 KHz
Bit depth                        : 24 bits
Compression mode                 : Lossy
Stream size                      : 141 MiB (11%)
Title                            : DTS
Language                         : English
Default                          : No
Forced                           : No

Audio #2
ID                               : 3
Format                           : AC-3
Format/Info                      : Audio Coding 3
Mode extension                   : CM (complete main)
Codec ID                         : A_AC3
Duration                         : 13mn 5s
Bit rate mode                    : Constant
Bit rate                         : 640 Kbps
Channel(s)                       : 6 channels
Channel positions                : Front: L C R, Side: L R, LFE
Sampling rate                    : 48.0 KHz
Bit depth                        : 16 bits
Compression mode                 : Lossy
Stream size                      : 59.9 MiB (4%)
Language                         : English
Default                          : No
Forced                           : No

Text #1
ID                               : 4
Format                           : UTF-8
Codec ID                         : S_TEXT/UTF8
Codec ID/Info                    : UTF-8 Plain Text
Language                         : Dutch
Default                          : No
Forced                           : No

Text #2
ID                               : 5
Format                           : UTF-8
Codec ID                         : S_TEXT/UTF8
Codec ID/Info                    : UTF-8 Plain Text
Language                         : English
Default                          : No
Forced                           : No

Text #3
ID                               : 6
Format                           : UTF-8
Codec ID                         : S_TEXT/UTF8
Codec ID/Info                    : UTF-8 Plain Text
Language                         : French
Default                          : No
Forced                           : No

Text #4
ID                               : 7
Format                           : UTF-8
Codec ID                         : S_TEXT/UTF8
Codec ID/Info                    : UTF-8 Plain Text
Language                         : Spanish
Default                          : No
Forced                           : No
.
Enjoy
